<svg id="_260_bug_fixing_outline" data-name="#260_bug_fixing_outline" xmlns="http://www.w3.org/2000/svg" viewBox="0 0 400 300" width="406" height="306" class="illustration styles_illustrationTablet__1DWOa"><path d="M193.38,184.4s-19.95,14.86-29.88,13.31a40.92,40.92,0,0,1-14.57-5.8v30.86H93.72v-49a17.56,17.56,0,0,1,17.55-17.57h20.1a17.54,17.54,0,0,1,16,10.44c4,5.34,11.81,14.7,17.76,14.48,8.32-.31,16.89-5.12,16.89-5.12Z" fill="#68e1fd"></path><path d="M148.93,223.77H93.72a1,1,0,0,1-1-1v-49a18.58,18.58,0,0,1,18.55-18.57h20.1a18.57,18.57,0,0,1,16.92,10.93c6.73,9,12.91,14.16,16.85,14,8-.29,16.36-4.94,16.44-5a1,1,0,0,1,1.08.07L194,183.59a1,1,0,0,1,.41.8,1,1,0,0,1-.4.81c-.83.61-20.41,15.09-30.64,13.5a39.73,39.73,0,0,1-13.41-5v29.11A1,1,0,0,1,148.93,223.77Zm-54.21-2h53.21V191.91a1,1,0,0,1,1.52-.85,39.54,39.54,0,0,0,14.2,5.66c8.13,1.27,23.77-9.31,28-12.34l-9.7-7.19c-2.09,1.09-9.45,4.66-16.76,4.93H165c-6.35,0-14.22-9.3-18.37-14.9a.72.72,0,0,1-.11-.19,16.58,16.58,0,0,0-15.14-9.84h-20.1a16.58,16.58,0,0,0-16.55,16.57Z" fill="#093f68"></path><path d="M148.93,192.91a1,1,0,0,1-1-1V180.43a1,1,0,0,1,2,0v11.48A1,1,0,0,1,148.93,192.91Z" fill="#093f68"></path><path d="M148.93,197.35l-8.75-7.86H114.26s-10.5,14.42-20.54,14v19.32h55.21Z" fill="#093f68"></path><path d="M148.93,223.77H93.72a1,1,0,0,1-1-1V203.45a1,1,0,0,1,.31-.73,1,1,0,0,1,.73-.27c9.43.42,19.59-13.41,19.69-13.55a1,1,0,0,1,.81-.41h25.92a1,1,0,0,1,.67.25l8.75,7.87a1,1,0,0,1,.33.74v25.42A1,1,0,0,1,148.93,223.77Zm-54.21-2h53.21v-24l-8.14-7.31h-25c-1.79,2.35-10.8,13.54-20,14Z" fill="#093f68"></path><rect x="115.15" y="157.13" width="5.13" height="35" fill="#093f68"></rect><path d="M120.28,193.13h-5.13a1,1,0,0,1-1-1v-35a1,1,0,0,1,1-1h5.13a1,1,0,0,1,1,1v35A1,1,0,0,1,120.28,193.13Zm-4.13-2h3.13v-33h-3.13Z" fill="#093f68"></path><rect x="132.15" y="155.75" width="5.13" height="35" rx="1.34" fill="#093f68"></rect><path d="M135.94,191.75h-2.45a2.34,2.34,0,0,1-2.34-2.34V157.08a2.33,2.33,0,0,1,2.34-2.33h2.45a2.33,2.33,0,0,1,2.34,2.33v32.33A2.34,2.34,0,0,1,135.94,191.75Zm-2.45-35a.34.34,0,0,0-.34.33v32.33a.34.34,0,0,0,.34.34h2.45a.34.34,0,0,0,.34-.34V157.08a.34.34,0,0,0-.34-.33Z" fill="#093f68"></path><path d="M313.41,103.16V189.8a7.55,7.55,0,0,1-7.55,7.55h-125a7.55,7.55,0,0,1-7.55-7.55V103.16a7.55,7.55,0,0,1,7.55-7.55h125A7.55,7.55,0,0,1,313.41,103.16Z" fill="#fff"></path><path d="M305.86,198.35h-125a8.59,8.59,0,0,1-6.23-2.7,8.48,8.48,0,0,1-2.32-5.85V103.16a8.56,8.56,0,0,1,8.55-8.55h125a8.56,8.56,0,0,1,8.55,8.55V189.8A8.56,8.56,0,0,1,305.86,198.35Zm-125-101.74a6.56,6.56,0,0,0-6.55,6.55V189.8a6.47,6.47,0,0,0,1.78,4.48,6.57,6.57,0,0,0,4.77,2.07h125a6.55,6.55,0,0,0,6.55-6.55V103.16a6.56,6.56,0,0,0-6.55-6.55Z" fill="#093f68"></path><rect x="180.91" y="102.56" width="124.95" height="74.01" fill="#68e1fd"></rect><path d="M305.85,177.57H180.91a1,1,0,0,1-1-1v-74a1,1,0,0,1,1-1H305.85a1,1,0,0,1,1,1v74A1,1,0,0,1,305.85,177.57Zm-123.94-2H304.85v-72H181.91Z" fill="#093f68"></path><path d="M259.87,197.36h-33s3,9.7-9.3,20.63h51.57C256.84,207.06,259.87,197.36,259.87,197.36Z" fill="#68e1fd"></path><path d="M269.17,219H217.6a1,1,0,0,1-.66-1.75c11.71-10.37,9-19.49,9-19.58a1,1,0,0,1,.15-.9,1,1,0,0,1,.8-.4h33a1,1,0,0,1,.81.4,1,1,0,0,1,.15.89,13,13,0,0,0,.07,5.86c.71,3.28,2.83,8.32,8.93,13.73a1,1,0,0,1-.66,1.75Zm-49.05-2h46.53c-8.33-8.32-8.39-15.72-8-18.63H228.12C228.51,201.27,228.45,208.67,220.12,217Z" fill="#093f68"></path><path d="M243.39,190.49a4.28,4.28,0,1,1,4.27-4.28A4.28,4.28,0,0,1,243.39,190.49Zm0-6.56a2.28,2.28,0,1,0,2.27,2.28A2.28,2.28,0,0,0,243.39,183.93Z" fill="#093f68"></path><rect x="210.71" y="217.99" width="65.36" height="4.88" rx="2.44" fill="#68e1fd"></rect><path d="M273.62,223.87H213.15a3.44,3.44,0,0,1,0-6.88h60.47a3.44,3.44,0,1,1,0,6.88ZM213.15,219a1.44,1.44,0,0,0,0,2.88h60.47a1.44,1.44,0,1,0,0-2.88Z" fill="#093f68"></path><path d="M121.21,153.94h9.45a0,0,0,0,1,0,0v5.44a4,4,0,0,1-4,4h-1.43a4,4,0,0,1-4-4v-5.44A0,0,0,0,1,121.21,153.94Z" transform="translate(-22.25 20.55) rotate(-8.57)" fill="#ffc9b0"></path><path d="M125.34,164.49a5,5,0,0,1-5-4.26l-.81-5.38a1,1,0,0,1,.84-1.14l9.35-1.41a1,1,0,0,1,1.14.84l.81,5.38a5,5,0,0,1-4.21,5.7l-1.41.22A6.3,6.3,0,0,1,125.34,164.49Zm-3.64-9,.66,4.39a3,3,0,0,0,3.43,2.53l1.41-.21h0a3,3,0,0,0,2.53-3.43l-.66-4.39Z" fill="#093f68"></path><path d="M89.74,134.92c-1.49-1.48-2.74-4.11-3.67-5.65A34,34,0,0,1,81,111.14a24.19,24.19,0,0,1,5.27-15,12.86,12.86,0,0,1,6-4.31,7.43,7.43,0,0,1,7.06,1.34c.88-6.52,7.39-11,13.88-12.09s13.08.55,19.56,1.68c2.81.49,5.73.9,8.48.14s5.28-3,5.54-5.81c0,.19,2.79,2.88,3.09,3.4a12.53,12.53,0,0,1,1.61,4.74c.46,3.57-.89,6.47-2.32,9.63a1.47,1.47,0,0,0-.18.64,1.45,1.45,0,0,0,.4.81c7,9,6.3,19,5.53,29.71l-5.95-.14c-2.5-.06-5.45,1-7.89,1.44l-18,3.3c-8.7,1.59-17,5.17-25.89,5.54-1.78.07-4.79.38-6.41-.48A4.55,4.55,0,0,1,89.74,134.92Z" fill="#725858"></path><path d="M94.29,137.31a8.76,8.76,0,0,1-4-.71,5.25,5.25,0,0,1-1.29-1A21,21,0,0,1,86,131.07c-.27-.47-.51-.91-.73-1.28A34.73,34.73,0,0,1,80,111.12a25.1,25.1,0,0,1,5.5-15.58A13.77,13.77,0,0,1,92,90.91a8.82,8.82,0,0,1,6.67.6c1.75-6.5,8.48-10.43,14.4-11.38,5.74-.92,11.52.15,17.11,1.18.93.17,1.86.35,2.79.51,2.66.46,5.47.86,8,.15,2.15-.59,4.58-2.39,4.82-4.94a1,1,0,0,1,1.89-.35c.18.23.8.87,1.26,1.34a16.21,16.21,0,0,1,1.79,2,13.69,13.69,0,0,1,1.74,5.13c.49,3.79-.88,6.81-2.33,10l-.07.15a1.78,1.78,0,0,0-.09.23s.13.11.19.2c7.25,9.32,6.51,19.54,5.74,30.36a1,1,0,0,1-1,1l-5.95-.14a20.5,20.5,0,0,0-5.11.85c-.9.22-1.75.43-2.57.58l-18,3.3c-3.29.6-6.59,1.51-9.78,2.38-5.22,1.44-10.63,2.93-16.25,3.16l-.77,0C95.81,137.27,95.05,137.31,94.29,137.31Zm.4-44.79a7.2,7.2,0,0,0-2.09.31,11.73,11.73,0,0,0-5.55,4,23.08,23.08,0,0,0-5,14.34,32.82,32.82,0,0,0,4.92,17.6c.23.38.49.84.76,1.33a19.75,19.75,0,0,0,2.76,4.12h0a3.8,3.8,0,0,0,.81.63c1.17.61,3.54.48,5.11.4l.8,0c5.39-.23,10.68-1.68,15.8-3.09,3.23-.89,6.58-1.81,10-2.43l18-3.3c.76-.14,1.58-.34,2.45-.56a22.61,22.61,0,0,1,5.64-.9l5,.12c.72-10.1,1.18-19.62-5.39-28.08a2.43,2.43,0,0,1-.61-1.37,2.27,2.27,0,0,1,.27-1.1l.07-.16c1.38-3.06,2.58-5.7,2.16-8.93A11.55,11.55,0,0,0,149.07,81c-.14-.21-1-1.06-1.51-1.63l-.22-.23a8.91,8.91,0,0,1-5.78,4.72c-3,.82-6,.39-8.91-.11l-2.81-.51c-5.42-1-11-2-16.42-1.18-5.86.94-12.22,5.11-13,11.25a1,1,0,0,1-1.66.6A6,6,0,0,0,94.69,92.52Zm53.15-15.3Zm0,0Zm0,0Z" fill="#093f68"></path><ellipse cx="95.19" cy="135.96" rx="9.18" ry="7.91" transform="translate(-19.21 15.71) rotate(-8.57)" fill="#ffc9b0"></ellipse><path d="M94.77,144.91a10.7,10.7,0,0,1-5.7-1.6,8.16,8.16,0,0,1-1.89-12.56,11.24,11.24,0,0,1,14.13-2.13,8.15,8.15,0,0,1,1.9,12.56,10.9,10.9,0,0,1-6.69,3.6A11.45,11.45,0,0,1,94.77,144.91ZM95.62,129a9.06,9.06,0,0,0-1.46.11,8.9,8.9,0,0,0-5.46,2.92,6.16,6.16,0,0,0,1.44,9.57,9.26,9.26,0,0,0,11.55-1.74,6.39,6.39,0,0,0,1.6-5.14h0a6.37,6.37,0,0,0-3-4.43A8.68,8.68,0,0,0,95.62,129Z" fill="#093f68"></path><ellipse cx="148.14" cy="127.98" rx="9.18" ry="7.91" transform="translate(-17.43 23.52) rotate(-8.57)" fill="#ffc9b0"></ellipse><path d="M147.74,136.93c-4.85,0-9-3.08-9.67-7.43-.73-4.86,3.19-9.5,8.74-10.33a11,11,0,0,1,7.45,1.46,8.35,8.35,0,0,1,4,5.83h0a8.36,8.36,0,0,1-2.05,6.74,11,11,0,0,1-6.69,3.6A12.71,12.71,0,0,1,147.74,136.93Zm.83-15.9a10.25,10.25,0,0,0-1.46.11c-4.46.68-7.63,4.29-7.06,8.06s4.66,6.29,9.12,5.62a8.91,8.91,0,0,0,5.47-2.93,6.32,6.32,0,0,0,1.59-5.13h0a6.36,6.36,0,0,0-3-4.43A8.69,8.69,0,0,0,148.57,121Z" fill="#093f68"></path><path d="M125.76,157.44a27.71,27.71,0,0,1-31.53-23.26l-3-19.88c5.6-1.31,8.21-6.35,8.51-11.68,12.12,8.83,22.24,8.34,24.71,5,0,0-7.77-2.06-8.61-8a57.09,57.09,0,0,0,15.2,4.95c6,1,14.14-3.93,14.14-3.93L149,125.92A27.7,27.7,0,0,1,125.76,157.44Z" fill="#ffc9b0"></path><path d="M121.61,158.76a28.74,28.74,0,0,1-28.36-24.43l-3-19.89a1,1,0,0,1,.76-1.12c4.53-1,7.43-5.07,7.74-10.75a1,1,0,0,1,.57-.85,1,1,0,0,1,1,.1c10.23,7.45,18.76,8,22.14,6.13-2.51-1-7-3.5-7.63-8.27a1,1,0,0,1,1.46-1,56.48,56.48,0,0,0,14.9,4.85c5.59.94,13.39-3.75,13.46-3.79a1,1,0,0,1,1-.06,1,1,0,0,1,.56.76L150,125.77a28.74,28.74,0,0,1-24.1,32.66h0A28.6,28.6,0,0,1,121.61,158.76Zm4.15-1.32h0ZM92.36,115l2.86,19a26.7,26.7,0,1,0,52.81-8l-3.61-23.93c-2.61,1.38-8.63,4.16-13.54,3.34a58.6,58.6,0,0,1-13.4-4.07c1.94,3.74,7.17,5.19,7.23,5.2a1,1,0,0,1,.69.64,1,1,0,0,1-.14.92c-2.74,3.76-12.72,4.39-24.69-3.74C99.79,109.77,96.82,113.62,92.36,115Z" fill="#093f68"></path><circle cx="115.66" cy="128.27" r="2.56" fill="#093f68"></circle><circle cx="137.28" cy="124.58" r="2.56" fill="#093f68"></circle><path d="M122.63,137.38h-.2a1,1,0,0,1-1-1,1,1,0,0,1,1-1,12.44,12.44,0,0,0,3.55-.46c-.1-.87-1.41-3.27-3-5.42a1,1,0,0,1,.22-1.4,1,1,0,0,1,1.4.22c1.16,1.59,3.81,5.49,3.3,7.3a1.54,1.54,0,0,1-.92,1A12.85,12.85,0,0,1,122.63,137.38Z" fill="#093f68"></path><path d="M103.48,121.52a2,2,0,0,1-.36-4l12-2.23a2,2,0,0,1,.72,3.94l-12,2.22A2.19,2.19,0,0,1,103.48,121.52Z" fill="#093f68"></path><path d="M127.74,117.3a2,2,0,0,1-.22-4L139.68,112a2,2,0,1,1,.44,4L128,117.29Z" fill="#093f68"></path><path d="M106.64,135.71a3.74,3.74,0,0,1-3.69-3.18L101.81,125a1,1,0,0,1,.84-1.14l17.6-2.65a1,1,0,0,1,.75.18,1,1,0,0,1,.39.66l1.14,7.55a3.74,3.74,0,0,1-3.14,4.25l-12.18,1.84A3.64,3.64,0,0,1,106.64,135.71Zm-2.7-10,1,6.56a1.72,1.72,0,0,0,.69,1.14,1.74,1.74,0,0,0,1.29.32l12.19-1.84h0a1.73,1.73,0,0,0,1.45-2l-1-6.57Z" fill="#093f68"></path><path d="M128.5,132.41a3.72,3.72,0,0,1-3.68-3.18l-1.14-7.55a1,1,0,0,1,.84-1.14l17.6-2.65a1,1,0,0,1,.74.18,1,1,0,0,1,.4.66l1.13,7.55a3.71,3.71,0,0,1-3.13,4.25h0l-12.19,1.84A3.64,3.64,0,0,1,128.5,132.41Zm-2.7-10,1,6.56a1.73,1.73,0,0,0,.69,1.14,1.7,1.7,0,0,0,1.29.32L141,128.55a1.71,1.71,0,0,0,1.14-.68,1.74,1.74,0,0,0,.32-1.29l-1-6.56Zm15.31,7.17h0Z" fill="#093f68"></path><path d="M91.31,130.52a1,1,0,0,1-.15-2l11.93-1.8a1,1,0,0,1,1.14.84,1,1,0,0,1-.84,1.14l-11.93,1.8Z" fill="#093f68"></path><path d="M142.76,122.76a1,1,0,0,1-.15-2l4.35-.66a1,1,0,0,1,.29,2l-4.34.65Z" fill="#093f68"></path><path d="M119.77,147.64a12.41,12.41,0,0,1-3.17-.4c-3.32-.87-5.95-3.15-7.84-6.77a1,1,0,0,1,1.77-.92c1.62,3.1,3.82,5,6.57,5.75,5.52,1.46,11.53-2.38,11.59-2.42a1,1,0,0,1,1.09,1.68A20.52,20.52,0,0,1,119.77,147.64Z" fill="#093f68"></path><path d="M98.3,176.57s19.36,24.42,29.52,24.11,32.89-28.18,32.89-28.18L150,160.18s-18.47,21-23.4,18.56-15.25-14.38-15.25-14.38" fill="#68e1fd"></path><path d="M127.64,201.68c-10.58,0-29.33-23.48-30.12-24.49A1,1,0,1,1,99.08,176,157,157,0,0,0,110,188c7.68,7.62,13.78,11.64,17.66,11.64h.16c7.75-.24,24.94-19.09,31.62-27.16L150,161.7c-4.1,4.58-16.76,18.2-22.58,18.2a2.71,2.71,0,0,1-1.26-.27c-5-2.52-15.13-14.12-15.56-14.61a1,1,0,0,1,.1-1.42,1,1,0,0,1,1.41.11c.11.11,10.25,11.79,15,14.13,2.62,1.3,13.56-8.49,22.19-18.32a1,1,0,0,1,.76-.34h0a1,1,0,0,1,.75.35l10.69,12.32a1,1,0,0,1,0,1.28c-.94,1.16-23.14,28.23-33.64,28.55Z" fill="#093f68"></path><path d="M206.76,141.22a8.54,8.54,0,0,0,3.58-9.08l-5.28,3.5-3.48-1,0-4.26,5.11-3.39a8.52,8.52,0,0,0-13.13,7.09l-32.76,21.59a4.76,4.76,0,0,0,5.25,7.93L198.79,142A8.52,8.52,0,0,0,206.76,141.22Zm-44.53,19.16a2.09,2.09,0,1,1,2.9.59A2.09,2.09,0,0,1,162.23,160.38Z" fill="#ffbc0e"></path><path d="M163.42,165.36a5.75,5.75,0,0,1-3.19-10.55l32.33-21.31a9.52,9.52,0,0,1,14.65-7.38,1,1,0,0,1,0,1.67l-4.66,3.09v3l2.33.69,4.89-3.24a1,1,0,0,1,.92-.1,1,1,0,0,1,.6.7,9.56,9.56,0,0,1-4,10.14h0a9.52,9.52,0,0,1-8.4,1l-32.33,21.3A5.7,5.7,0,0,1,163.42,165.36Zm38.64-38.76a7.51,7.51,0,0,0-7.52,7.46,1,1,0,0,1-.45.83l-32.76,21.59a3.75,3.75,0,0,0-1.05,5.2,3.75,3.75,0,0,0,5.2,1l32.76-21.58a1,1,0,0,1,.93-.09,7.53,7.53,0,0,0,10.4-7.21l-4,2.62a1,1,0,0,1-.83.13l-3.49-1a1,1,0,0,1-.71-1l0-4.26a1,1,0,0,1,.44-.84l3.68-2.43A7.36,7.36,0,0,0,202.06,126.6Zm4.7,14.62h0ZM164,162.32a3.34,3.34,0,0,1-.62-.06,3.06,3.06,0,0,1-2-1.32,3.09,3.09,0,1,1,4.28.87A3.05,3.05,0,0,1,164,162.32Zm0-4.19a1.08,1.08,0,0,0-.6.18,1.14,1.14,0,0,0-.47.7,1.07,1.07,0,0,0,.16.82h0a1.1,1.1,0,0,0,1.52.31,1.1,1.1,0,0,0-.39-2Z" fill="#093f68"></path><path d="M226.1,132.65a2.17,2.17,0,0,1-.78-.16l-8.85-3.76a2,2,0,0,1-1.18-1.46l-1.85-9.63a2,2,0,0,1,3.93-.75l1.64,8.58,7.87,3.33a2,2,0,0,1-.78,3.85Z" fill="#093f68"></path><path d="M215.41,167.51l-.38,0a2,2,0,0,1-1.59-2.34l1.85-9.63a2,2,0,0,1,1.18-1.47l8.85-3.75a2,2,0,0,1,1.56,3.69L219,157.31l-1.64,8.58A2,2,0,0,1,215.41,167.51Z" fill="#093f68"></path><path d="M211.72,146.33a2,2,0,0,1-1.25-.44,2,2,0,0,1-.31-2.81l2.37-3a2,2,0,0,1,1.56-.74h9.35a2,2,0,0,1,0,4h-8.39l-1.77,2.2A2,2,0,0,1,211.72,146.33Z" fill="#093f68"></path><path d="M260.25,132.65a2,2,0,0,1-.78-3.85l7.87-3.33,1.64-8.58a2,2,0,0,1,3.93.75l-1.84,9.63a2,2,0,0,1-1.18,1.46L261,132.49A2.13,2.13,0,0,1,260.25,132.65Z" fill="#093f68"></path><path d="M271,167.51a2,2,0,0,1-2-1.62l-1.64-8.58L259.47,154a2,2,0,0,1,1.56-3.69l8.86,3.75a2,2,0,0,1,1.18,1.47l1.84,9.63a2,2,0,0,1-1.59,2.34A2.31,2.31,0,0,1,271,167.51Z" fill="#093f68"></path><path d="M274.63,146.33a2,2,0,0,1-1.55-.74l-1.77-2.2h-8.39a2,2,0,0,1,0-4h9.34a2,2,0,0,1,1.56.74l2.37,3a2,2,0,0,1-.3,2.81A2,2,0,0,1,274.63,146.33Z" fill="#093f68"></path><circle cx="243.17" cy="141.39" r="19.7" fill="#f56132"></circle><path d="M243.17,162.09a20.7,20.7,0,1,1,20.7-20.7A20.73,20.73,0,0,1,243.17,162.09Zm0-39.4a18.7,18.7,0,1,0,18.7,18.7A18.72,18.72,0,0,0,243.17,122.69Z" fill="#093f68"></path><path d="M253.93,124.77l-10.76,7.51-10.76-7.51c0-4.14,4.82-7.5,10.76-7.5S253.93,120.63,253.93,124.77Z" fill="#093f68"></path><path d="M243.17,133.28a1,1,0,0,1-.57-.18l-10.76-7.51a1,1,0,0,1-.43-.82c0-4.69,5.28-8.5,11.76-8.5s11.76,3.81,11.76,8.5a1,1,0,0,1-.43.82l-10.76,7.51A1,1,0,0,1,243.17,133.28Zm-9.73-9,9.73,6.79,9.73-6.79c-.38-3.35-4.6-6-9.73-6S233.83,120.92,233.44,124.27Zm20.49.5h0Z" fill="#093f68"></path><path d="M243.17,162.09a1,1,0,0,1-1-1V132.28a1,1,0,0,1,2,0v28.81A1,1,0,0,1,243.17,162.09Z" fill="#093f68"></path><path d="M249.39,119.65a1,1,0,0,1-.37-.07,1,1,0,0,1-.55-1.3c.1-.26,2.62-6.51,6.12-9.58a1,1,0,0,1,1.32,1.51c-3.14,2.75-5.56,8.75-5.59,8.81A1,1,0,0,1,249.39,119.65Z" fill="#093f68"></path><path d="M236.21,119.65a1,1,0,0,1-.93-.63c0-.06-2.45-6.07-5.59-8.81a1,1,0,0,1-.1-1.41,1,1,0,0,1,1.42-.1c3.5,3.07,6,9.32,6.12,9.58a1,1,0,0,1-.55,1.3A1,1,0,0,1,236.21,119.65Z" fill="#093f68"></path><path d="M293.75,165.85h-9.54a1,1,0,0,1,0-2h9.54a1,1,0,0,1,0,2Z" fill="#fff"></path><path d="M299,159.52H284.21a1,1,0,0,1,0-2H299a1,1,0,0,1,0,2Z" fill="#fff"></path><path d="M299,153.18H284.21a1,1,0,0,1,0-2H299a1,1,0,0,1,0,2Z" fill="#fff"></path><path d="M297.91,110.45h-13.7a1,1,0,0,1,0-2h13.7a1,1,0,0,1,0,2Z" fill="#fff"></path><path d="M297.91,116.35h-4.16a1,1,0,0,1,0-2h4.16a1,1,0,0,1,0,2Z" fill="#fff"></path><path d="M289,116.35h-4.77a1,1,0,0,1,0-2H289a1,1,0,0,1,0,2Z" fill="#fff"></path><path d="M203.61,169.92H187.29a1,1,0,0,1-1-1v-6.78a1,1,0,0,1,1-1h16.32a1,1,0,0,1,1,1v6.78A1,1,0,0,1,203.61,169.92Zm-15.32-2h14.32v-4.78H188.29Z" fill="#fff"></path><path d="M193.14,169.92a1,1,0,0,1-1-1v-5.59a1,1,0,0,1,2,0v5.59A1,1,0,0,1,193.14,169.92Z" fill="#fff"></path><path d="M151.21,160.85a46.8,46.8,0,0,1,6.29-7c3.69-3.31,6-6.09,8.54-6.31s12.47,2.23,11.32,6-4.1,10.53-7.94,10.53a20.78,20.78,0,0,0-6.15.79l-4.51,5.26Z" fill="#ffc9b0"></path><path d="M158.76,171.11h0a1,1,0,0,1-.76-.37l-7.55-9.26a1,1,0,0,1,0-1.21,46.53,46.53,0,0,1,6.43-7.14c.8-.72,1.54-1.41,2.22-2.06,2.56-2.4,4.57-4.3,6.9-4.51s9.38,1.4,11.69,4.25a3.11,3.11,0,0,1,.67,3c-.58,1.88-3.73,11.24-8.89,11.24a21.86,21.86,0,0,0-5.58.66l-4.32,5A1,1,0,0,1,158.76,171.11Zm-6.28-10.29,6.3,7.73,3.73-4.35a1,1,0,0,1,.44-.29,21.27,21.27,0,0,1,6.47-.85c2.71,0,5.52-5.1,7-9.83a1.15,1.15,0,0,0-.32-1.16c-1.74-2.16-8.08-3.68-10-3.52-1.64.15-3.34,1.75-5.71,4-.69.65-1.44,1.36-2.26,2.09A46.42,46.42,0,0,0,152.48,160.82Z" fill="#093f68"></path><path d="M319,223.87H81a1,1,0,0,1,0-2H319a1,1,0,0,1,0,2Z" fill="#093f68"></path></svg>